<?xml version="1.0" encoding="utf-8"?>
<!-- Generator: Adobe Illustrator 18.0.0, SVG Export Plug-In . SVG Version: 6.00 Build 0)  -->
<!DOCTYPE svg PUBLIC "-//W3C//DTD SVG 1.1//EN" "http://www.w3.org/Graphics/SVG/1.1/DTD/svg11.dtd">
<svg version="1.1" xmlns="http://www.w3.org/2000/svg" xmlns:xlink="http://www.w3.org/1999/xlink" x="0px" y="0px"
	 viewBox="0 0 1944 2808" enable-background="new 0 0 1944 2808" xml:space="preserve">
<g id="Calque_1" display="none">
	<g display="inline">
		<defs>
			<rect id="SVGID_1_" x="30.2" y="-1" width="1944" height="2808"/>
		</defs>
		<clipPath id="SVGID_2_">
			<use xlink:href="#SVGID_1_"  overflow="visible"/>
		</clipPath>
		<path clip-path="url(#SVGID_2_)" d="M1049.1,835.6l36.2-29.2v90.8l-36.9-62.9 M1049.4,920.7c0,0,24.9-15.1,41.7-25.1
			c16.7-9.9,39.2-20.9,39.2-20.9V770.1l15-12l-2-2.3l-14.6,11.8l-45.8-41.4l-79.6,63.1l1.9,2.3l44-34.5l36.2,33.8v11.6l-71,57.3
			L1049.4,920.7z"/>
		<polygon clip-path="url(#SVGID_2_)" points="1153.4,502.6 1116.4,453.4 1018.1,453.5 1069.6,521.2 1100.5,561.8 		"/>
		
			<line clip-path="url(#SVGID_2_)" fill="none" stroke="#000000" stroke-width="5.687" stroke-miterlimit="10" x1="910" y1="456.2" x2="1104.3" y2="456.2"/>
		<polygon clip-path="url(#SVGID_2_)" points="876.6,920.7 935.1,876.5 936.1,694.3 859.9,694.3 859.8,845.1 823.2,873 806.4,859 
			803.2,861.4 		"/>
		<polygon clip-path="url(#SVGID_2_)" points="860.2,721.3 859.9,518.3 840.9,493.3 820.3,503.6 818,500.2 909.9,453.4 936.3,454.9 
			936.4,715.8 		"/>
		
			<line clip-path="url(#SVGID_2_)" fill="none" stroke="#000000" stroke-width="5.687" stroke-miterlimit="10" x1="1035.7" y1="644.3" x2="869.6" y2="640.7"/>
		<polyline clip-path="url(#SVGID_2_)" fill="#1B181E" points="1000.6,644.3 1041.5,594.8 1029.1,581.5 1031.2,578.9 1083.5,637.4 
			1044.5,684 1059.4,699.9 1056.8,702.5 1040.9,684.5 		"/>
		<path clip-path="url(#SVGID_2_)" d="M567.4,1144.6l36.1-29.2v90.7l-36.9-62.9 M567.7,1229.7c0,0,24.9-15.1,41.6-25
			c16.7-9.9,39.2-20.9,39.2-20.9v-104.6l15-12l-2-2.3l-14.6,11.8l-45.8-41.4l-79.5,63l1.9,2.3l43.9-34.5l36.1,33.8v11.6l-71,57.2
			L567.7,1229.7z"/>
		<path clip-path="url(#SVGID_2_)" d="M531.6,1245.8L483,1285l-34-30.3l-12.9,10.3l-1.9-2.1l21.4-17.4v-237.3
			c0-13.3-5.8-22.4-13.3-25.3l57.2-46.1h0.4v298.8l19,16.8l10.9-8.7L531.6,1245.8z"/>
		<path clip-path="url(#SVGID_2_)" d="M858.6,1144.6l36.1-29.2v90.7l-36.9-62.9 M858.9,1229.7c0,0,24.9-15.1,41.6-25
			c16.7-9.9,39.2-20.9,39.2-20.9v-104.6l15-12l-2-2.3l-14.6,11.8l-45.8-41.4l-79.5,63l1.9,2.3l43.9-34.5l36.1,33.8v11.6l-71,57.2
			L858.9,1229.7z"/>
		<path clip-path="url(#SVGID_2_)" d="M822.7,1186.6l-48.6,39.2l-34-30.3l-12.9,10.3l-1.9-2.1l21.4-17.4v-178.1
			c0-13.3-5.8-22.4-13.3-25.3l57.2-46.1h0.4v239.5l19,16.8l10.9-8.7L822.7,1186.6z"/>
		<path clip-path="url(#SVGID_2_)" d="M1149.8,1144.6l36.1-29.2v90.7l-36.9-62.9 M1150.1,1229.7c0,0,24.9-15.1,41.6-25
			c16.7-9.9,39.2-20.9,39.2-20.9v-104.6l15-12l-2-2.3l-14.6,11.8l-45.8-41.4l-79.5,63l1.9,2.3l43.9-34.5l36.1,33.8v11.6l-71,57.2
			L1150.1,1229.7z"/>
		<path clip-path="url(#SVGID_2_)" d="M1114,1186.6l-48.6,39.2l-34-30.3l-12.9,10.3l-1.9-2.1l21.4-17.4v-178.1
			c0-13.3-5.8-22.4-13.3-25.3l57.2-46.1h0.4v239.5l19,16.8l10.9-8.7L1114,1186.6z"/>
		<path clip-path="url(#SVGID_2_)" d="M1441.8,1144.6l36.1-29.2v90.7l-36.9-62.9 M1442.1,1229.7c0,0,24.9-15.1,41.6-25
			c16.7-9.9,39.2-20.9,39.2-20.9v-104.6l15-12l-2-2.3l-14.6,11.8l-45.8-41.4l-79.5,63l1.9,2.3l43.9-34.5l36.1,33.8v11.6l-71,57.2
			L1442.1,1229.7z"/>
		<path clip-path="url(#SVGID_2_)" d="M1406,1250.2l-48.6,39.2l-34-30.3l-12.9,10.3l-1.9-2.1l21.4-17.4v-241.7
			c0-13.3-5.8-22.4-13.3-25.3l57.2-46.1h0.4V1240l19,16.8l10.9-8.7L1406,1250.2z"/>
		<path clip-path="url(#SVGID_2_)" d="M855.9,1452.8l36.1-29.2v90.7l-36.9-62.9 M856.2,1537.8c0,0,24.9-15.1,41.6-25
			c16.7-9.9,39.2-20.9,39.2-20.9v-104.6l15-12l-2-2.3l-14.6,11.8l-45.8-41.4l-79.5,63l1.9,2.3l43.9-34.5L892,1408v11.6l-71,57.2
			L856.2,1537.8z"/>
		<path clip-path="url(#SVGID_2_)" d="M820.1,1494.7l-48.6,39.2l-34-30.3l-12.9,10.3l-1.9-2.1l21.4-17.4v-178.1
			c0-13.3-5.8-22.4-13.3-25.3L788,1245h0.4v239.5l19,16.8l10.9-8.7L820.1,1494.7z"/>
		<path clip-path="url(#SVGID_2_)" d="M1147.9,1452.8l36.1-29.2v90.7l-36.9-62.9 M1148.2,1537.8c0,0,24.9-15.1,41.6-25
			c16.7-9.9,39.2-20.9,39.2-20.9v-104.6l15-12l-2-2.3l-14.6,11.8l-45.8-41.4l-79.5,63l1.9,2.3l43.9-34.5l36.1,33.8v11.6l-71,57.2
			L1148.2,1537.8z"/>
		<path clip-path="url(#SVGID_2_)" d="M1112,1553.4l-48.6,39.2l-34-30.3l-12.9,10.3l-1.9-2.1l21.4-17.4v-236.8
			c0-13.3-5.8-22.4-13.3-25.3l57.2-46.1h0.4v298.2l19,16.8l10.9-8.7L1112,1553.4z"/>
		<path clip-path="url(#SVGID_2_)" d="M1004.6,1746.6l36.1-29.2v90.7l-36.9-62.9 M1004.9,1831.7c0,0,24.9-15.1,41.6-25
			c16.7-9.9,39.2-20.9,39.2-20.9v-104.6l15-12l-2-2.3l-14.6,11.8l-45.8-41.4l-79.5,63l1.9,2.3l43.9-34.5l36.1,33.8v11.6l-71,57.2
			L1004.9,1831.7z"/>
		<path clip-path="url(#SVGID_2_)" d="M968.8,1788.6l-48.6,39.2l-34-30.3l-12.9,10.3l-1.9-2.1l21.4-17.4v-178.1
			c0-13.3-5.8-22.4-13.3-25.3l57.2-46.1h0.4v239.5l19,16.8l10.9-8.7L968.8,1788.6z"/>
		<path clip-path="url(#SVGID_2_)" d="M1002,2054.2l36.1-29.2v90.7l-36.9-62.9 M1002.3,2139.2c0,0,24.9-15.1,41.6-25
			c16.7-9.9,39.2-20.9,39.2-20.9v-104.6l15-12l-2-2.3l-14.6,11.8l-45.8-41.4l-79.5,63l1.9,2.3l43.9-34.5l36.1,33.8v11.6l-71,57.2
			L1002.3,2139.2z"/>
		<path clip-path="url(#SVGID_2_)" d="M966.1,2163.5l-48.6,39.2l-34-30.2l-12.9,10.3l-1.9-2.1l21.4-17.4v-245.5
			c0-13.3-5.8-22.4-13.3-25.3l57.2-46.1h0.4v306.9l19,16.8l10.9-8.7L966.1,2163.5z"/>
		<polyline clip-path="url(#SVGID_2_)" fill="#1B181E" points="1160,2103.9 1124.2,2074.3 1114.6,2083.2 1112.7,2081.8 1155,2043.9 
			1188.8,2072.1 1200.3,2061.3 1202.1,2063.2 1189.2,2074.7 		"/>
		
			<line clip-path="url(#SVGID_2_)" fill="none" stroke="#000000" stroke-width="5.687" stroke-miterlimit="10" x1="1155.4" y1="2018.4" x2="1155.4" y2="1822.8"/>
	</g>
</g>
<g id="_x39_">
</g>
<g id="_x38_">
</g>
<g id="_x37_">
</g>
<g id="_x36_">
</g>
<g id="_x34_">
</g>
<g id="_x35_">
</g>
<g id="_x32_">
</g>
<g id="_x33__1_">
</g>
<g id="_x31_">
</g>
<g id="new_type">
	<polygon points="1014.2,1892.6 986.3,1843.7 926.2,1892.7 891.7,1861.4 880.7,1870.1 881.5,1871.1 891.7,1863.1 926.1,1894.3 
		986,1845.6 1013.8,1894.5 1092.5,1830.8 1092.9,1830.4 1092.5,1829.9 1092.1,1829.5 	"/>
	<polygon points="1014.2,1900.2 986.3,1851.3 926.2,1900.3 891.7,1869.1 880.7,1877.7 881.5,1878.7 891.7,1870.7 926.1,1902 
		986,1853.2 1013.8,1902.1 1092.5,1838.4 1092.9,1838.1 1092.5,1837.6 1092.1,1837.1 	"/>
	<polygon points="1014.2,1907.8 986.3,1858.9 926.2,1908 891.7,1876.7 880.7,1885.4 881.5,1886.4 891.7,1878.3 926.1,1909.6 
		986,1860.8 1013.8,1909.7 1092.5,1846 1092.9,1845.7 1092.5,1845.2 1092.1,1844.7 	"/>
	<polygon points="1070.5,1653.3 1036,1622 1025.2,1630.6 945.9,1520.2 867.4,1583.7 839.6,1534.8 779.4,1583.8 745,1552.6 
		734.8,1560.4 735.6,1561.4 745,1554.2 779.4,1585.5 839.2,1536.7 867.1,1585.6 945.6,1522 1024.6,1631.9 1025,1632.4 1036,1623.6 
		1070.4,1654.9 1236.8,1521.9 1237.2,1521.6 1236.8,1521.1 1236.4,1520.6 	"/>
	<polygon points="1070.5,1660.9 1036,1629.6 1025.2,1638.3 945.9,1527.8 867.4,1591.3 839.6,1542.5 779.4,1591.5 745,1560.2 
		734.8,1568 735.6,1569 745,1561.8 779.4,1593.1 839.2,1544.4 867.1,1593.2 945.6,1529.6 1024.6,1639.5 1025,1640.1 1036,1631.3 
		1070.4,1662.5 1236.8,1529.5 1237.2,1529.2 1236.8,1528.7 1236.4,1528.2 	"/>
	<polygon points="1070.5,1668.5 1036,1637.3 1025.2,1645.9 945.9,1535.5 867.4,1599 839.6,1550.1 779.4,1599.1 745,1567.8 
		734.8,1575.6 735.6,1576.6 745,1569.5 779.4,1600.7 839.2,1552 867.1,1600.9 945.6,1537.3 1024.6,1647.2 1025,1647.7 1036,1638.9 
		1070.4,1670.2 1236.8,1537.2 1237.2,1536.9 1236.8,1536.4 1236.4,1535.9 	"/>
	<polygon points="1070.5,1676.2 1036,1644.9 1025.2,1653.6 945.9,1543.1 867.4,1606.6 839.6,1557.7 779.4,1606.7 745,1575.5 
		734.8,1583.3 735.6,1584.3 745,1577.1 779.4,1608.4 839.2,1559.6 867.1,1608.5 945.6,1544.9 1024.6,1654.8 1025,1655.4 
		1036,1646.5 1070.4,1677.8 1236.8,1544.8 1237.2,1544.5 1236.8,1544 1236.4,1543.5 	"/>
	<polygon points="1070.5,1683.8 1036,1652.5 1025.2,1661.2 945.9,1550.7 867.4,1614.2 839.6,1565.4 779.4,1614.4 745,1583.1 
		734.8,1590.9 735.6,1591.9 745,1584.7 779.4,1616 839.2,1567.3 867.1,1616.1 945.6,1552.5 1024.6,1662.5 1025,1663 1036,1654.2 
		1070.4,1685.4 1236.8,1552.4 1237.2,1552.1 1236.8,1551.6 1236.4,1551.2 	"/>
	<polygon points="1070.5,1691.4 1036,1660.2 1025.2,1668.8 945.9,1558.4 867.4,1621.9 839.6,1573 779.4,1622 745,1590.8 
		734.8,1598.5 735.6,1599.5 745,1592.4 779.4,1623.7 839.2,1574.9 867.1,1623.8 945.6,1560.2 1024.6,1670.1 1025,1670.6 
		1036,1661.8 1070.4,1693.1 1236.8,1560.1 1237.2,1559.8 1236.8,1559.3 1236.4,1558.8 	"/>
	<polygon points="1070.5,1699.1 1036,1667.8 1025.2,1676.5 945.9,1566 867.4,1629.5 839.6,1580.6 779.4,1629.6 745,1598.4 
		734.9,1606.1 734.8,1606.2 734.9,1606.3 735.6,1607.2 745,1600 779.4,1631.3 839.2,1582.5 867.1,1631.4 945.6,1567.8 
		1024.6,1677.7 1025,1678.3 1036,1669.4 1070.4,1700.7 1236.8,1567.7 1237.2,1567.4 1236.8,1566.9 1236.4,1566.4 	"/>
	<path d="M1070.5,1706.7l-34.4-31.3l-10.8,8.7l-79.4-110.5l-78.4,63.5l-27.8-48.9l-60.1,49L745,1606l-9.8,7.5l-0.4,0.3l0.4,0.5l0,0
		l0.4,0.5l9.4-7.2l34.4,31.3l59.8-48.8l27.8,48.9l19.9-16.1l0,0l58.7-47.4l2.3,3.2l55.8,132.3l36.9-29.7l3.5,3.2l-39.9,32.1
		l-57.1-135.9l-60.7,49l0.8,1l59.4-48l57.1,135.9l41.3-33.3l44.1,40.1l9.9-8l-0.8-1l-9.1,7.3l-17.9-16.2l3.5-2.8l7,6.4
		c6.2,5.6,7.1,6.4,7.4,6.4c0.1,0,0.1,0,0.2,0l9.7-7.7l-0.8-1l-9.1,7.3c-1.5-1.3-6.9-6.2-13.4-12.2l3.5-2.8l9.8,8.9l9.9-8l-0.8-1
		l-9.1,7.3l-8.9-8.1l3.5-2.8l5.4,4.9l9.9-8l-0.8-1l-9.1,7.3l-4.4-4l152.3-121.8l-0.4-0.5l-0.4-0.5L1070.5,1706.7z M1003.8,1665.1
		l4-3.2l2.7,3.8l-6.2,5l-14-33.1l4.5,6.3L1003.8,1665.1z M998.1,1648.5l8.9,12.4l-2.7,2.2L998.1,1648.5z M1003.8,1672.8l7.5-6
		l2.7,3.8l-9.7,7.8l-21.8-51.7l4.5,6.3L1003.8,1672.8z M1003.8,1680.4l10.9-8.8l2.7,3.8l-13.2,10.6l-29.6-70.2l4.5,6.3
		L1003.8,1680.4z M1003.8,1688.1l14.4-11.6l2.7,3.8l-16.7,13.4l-37.5-88.8l4.6,6.4L1003.8,1688.1z M1003.4,1694.9l0.3,0.8l17.9-14.4
		l2.7,3.8l-20.1,16.2l-45.2-107.2l4.4,6.1L1003.4,1694.9z M1004.3,1709l-53-125.7l4.5,6.3l48,113.8l32.4-26.1l3.5,3.2L1004.3,1709z"
		/>
	<polygon points="926.2,2270.6 891.7,2239.4 880.4,2248.4 881.2,2249.4 891.7,2241 926.1,2272.3 1221.9,2036.1 1221.1,2035.1 	"/>
	<polygon points="926.2,2278.3 891.7,2247 880.4,2256.1 881.2,2257.1 891.7,2248.7 926.1,2279.9 1221.9,2043.8 1221.1,2042.8 	"/>
	<polygon points="926.2,2286 891.7,2254.7 880.4,2263.8 881.2,2264.8 891.7,2256.4 926.1,2287.6 1221.9,2051.5 1221.1,2050.5 	"/>
	<polygon points="926.2,2293.6 891.7,2262.4 880.4,2271.5 881.2,2272.4 891.7,2264 926.1,2295.3 1221.9,2059.1 1221.1,2058.2 	"/>
	<polygon points="926.2,2301.3 891.7,2270.1 880.4,2279.1 881.2,2280.1 891.7,2271.7 926.1,2303 1221.9,2066.8 1221.1,2065.9 	"/>
	<polygon points="926.2,2309 891.7,2277.7 880.4,2286.8 881.2,2287.8 891.7,2279.4 926.1,2310.6 1221.9,2074.5 1221.1,2073.5 	"/>
	<polygon points="926.2,2316.7 891.7,2285.4 880.4,2294.5 881.2,2295.5 891.7,2287.1 926.1,2318.3 1221.9,2082.2 1221.1,2081.2 	"/>
	<polygon points="926.2,2324.4 891.7,2293.1 880.4,2302.2 881.2,2303.1 891.7,2294.7 926.1,2326 1221.9,2089.9 1221.1,2088.9 	"/>
	<polygon points="926.2,2332 891.7,2300.8 880.4,2309.8 881.2,2310.8 891.7,2302.4 926.1,2333.7 1221.9,2097.5 1221.1,2096.6 	"/>
	<polygon points="926.2,2339.7 891.7,2308.4 880.4,2317.5 881.2,2318.5 891.7,2310.1 926.1,2341.4 1221.9,2105.2 1221.1,2104.2 	"/>
	<polygon points="512.2,966 568.8,1099.7 569.1,1100.5 610.4,1067.2 654.5,1107.3 694.1,1076.9 694.2,1076.8 737.2,1019.3 
		802.9,966 859.5,1099.7 859.8,1100.5 901.1,1067.2 945.2,1107.3 984.3,1076.9 984.4,1076.8 1027.4,1019.3 1093.5,966 
		1150.1,1099.7 1150.4,1100.5 1191.8,1067.2 1235.9,1107.3 1275.4,1076.9 1275.5,1076.8 1318.5,1019.3 1384.2,966 1440.8,1099.7 
		1441.1,1100.5 1482.4,1067.2 1526.5,1107.3 1536.3,1099.4 1536.7,1099.1 1536.3,1098.6 1535.9,1098.1 1526.6,1105.6 1482.5,1065.6 
		1441.6,1098.4 1385,964.8 1384.7,964 1317.7,1018.4 1317.6,1018.4 1274.6,1075.9 1235.9,1105.6 1191.8,1065.6 1151,1098.4 
		1094.4,964.8 1094.1,964 1026.5,1018.4 1026.5,1018.4 983.5,1075.9 945.3,1105.6 901.2,1065.6 860.3,1098.4 803.7,964.8 803.4,964 
		736.4,1018.4 736.3,1018.4 693.3,1075.9 654.6,1105.6 610.9,1065.9 610.5,1065.6 569.6,1098.4 512.7,964 452.4,1012.7 452,1013.1 
		452.4,1013.5 452.8,1014 	"/>
	<polygon points="512.2,958.2 568.8,1091.8 569.1,1092.6 610.4,1059.3 654.5,1099.4 694.1,1069 694.2,1068.9 737.2,1011.4 
		802.9,958.2 859.5,1091.8 859.8,1092.6 901.1,1059.3 945.2,1099.4 984.3,1069 984.4,1068.9 1027.4,1011.4 1093.5,958.2 
		1150.1,1091.8 1150.4,1092.6 1191.8,1059.3 1235.9,1099.4 1275.4,1069 1275.5,1068.9 1318.5,1011.4 1384.2,958.2 1440.8,1091.8 
		1441.1,1092.6 1482.4,1059.3 1526.5,1099.4 1536.3,1091.5 1536.7,1091.2 1536.3,1090.7 1535.9,1090.2 1526.6,1097.7 1482.5,1057.7 
		1441.6,1090.6 1385,956.9 1384.7,956.1 1317.7,1010.5 1317.6,1010.6 1274.6,1068.1 1235.9,1097.8 1191.8,1057.7 1151,1090.6 
		1094.4,956.9 1094.1,956.1 1026.5,1010.5 1026.5,1010.5 983.5,1068.1 945.3,1097.7 901.2,1057.7 860.3,1090.6 803.7,956.9 
		803.4,956.1 736.4,1010.5 736.3,1010.6 693.3,1068.1 654.6,1097.8 610.9,1058 610.5,1057.7 569.6,1090.6 512.7,956.1 452.4,1004.9 
		452,1005.2 452.4,1005.7 452.8,1006.2 	"/>
	<polygon points="512.2,950.3 568.8,1083.9 569.1,1084.7 610.4,1051.4 654.5,1091.5 694.1,1061.1 694.2,1061.1 737.2,1003.5 
		802.9,950.3 859.5,1083.9 859.8,1084.7 901.1,1051.4 945.2,1091.5 984.3,1061.1 984.4,1061.1 1027.4,1003.5 1093.5,950.3 
		1150.1,1083.9 1150.4,1084.7 1191.8,1051.4 1235.9,1091.5 1275.4,1061.1 1275.5,1061.1 1318.5,1003.5 1384.2,950.3 1440.8,1083.9 
		1441.1,1084.7 1482.4,1051.4 1526.5,1091.5 1536.3,1083.6 1536.7,1083.3 1536.3,1082.8 1535.9,1082.3 1526.6,1089.9 1482.5,1049.8 
		1441.6,1082.7 1385,949 1384.7,948.3 1317.7,1002.6 1317.6,1002.7 1274.6,1060.2 1235.9,1089.9 1191.8,1049.8 1151,1082.7 
		1094.4,949 1094.1,948.3 1026.5,1002.6 1026.5,1002.7 983.5,1060.2 945.3,1089.9 901.2,1049.8 860.3,1082.7 803.7,949 803.4,948.3 
		736.4,1002.6 736.3,1002.7 693.3,1060.2 654.6,1089.9 610.9,1050.2 610.5,1049.8 569.6,1082.7 512.7,948.3 452.4,997 452,997.3 
		452.4,997.8 452.8,998.3 	"/>
	<polygon points="512.2,942.4 568.8,1076.1 569.1,1076.8 610.4,1043.6 654.5,1083.6 694.1,1053.2 694.2,1053.2 737.2,995.7 
		802.9,942.4 859.5,1076.1 859.8,1076.8 901.1,1043.6 945.2,1083.6 984.3,1053.2 984.4,1053.2 1027.4,995.7 1093.5,942.4 
		1150.1,1076.1 1150.4,1076.8 1191.8,1043.6 1235.9,1083.6 1275.4,1053.2 1275.5,1053.2 1318.5,995.7 1384.2,942.4 1440.8,1076.1 
		1441.1,1076.8 1482.4,1043.6 1526.5,1083.6 1536.3,1075.7 1536.7,1075.4 1536.3,1074.9 1535.9,1074.5 1526.6,1082 1482.5,1041.9 
		1441.6,1074.8 1385,941.2 1384.7,940.4 1317.7,994.7 1317.6,994.8 1274.6,1052.3 1235.9,1082 1191.8,1041.9 1151,1074.8 
		1094.4,941.2 1094.1,940.4 1026.5,994.7 1026.5,994.8 983.5,1052.3 945.3,1082 901.2,1041.9 860.3,1074.8 803.7,941.2 803.4,940.4 
		736.4,994.7 736.3,994.8 693.3,1052.3 654.6,1082 610.9,1042.3 610.5,1041.9 569.6,1074.8 512.7,940.4 452.4,989.1 452,989.4 
		452.4,989.9 452.8,990.4 	"/>
	<path d="M512.2,934.5l56.6,133.7l0.3,0.8l41.3-33.3l44.1,40.1l39.6-30.4l0.1-0.1l43-57.5l65.7-53.3l56.6,133.7l0.3,0.8l41.3-33.3
		l44.1,40.1l39.1-30.4l0.1-0.1l43-57.5l66.2-53.3l56.6,133.7l0.3,0.8l41.3-33.3l44.1,40.1l39.6-30.4l0.1-0.1l43-57.5l65.7-53.3
		l56.6,133.7l0.3,0.8l41.3-33.3l44.1,40.1l9.7-7.9l0.4-0.3l-0.4-0.5l-0.4-0.5l-9.3,7.5l-44.1-40.1l-40.9,32.9L1385,933.3l-0.3-0.8
		l-67,54.4l-0.1,0l-43,57.5l-38.7,29.7l-44.1-40.1l-40.9,32.9l-56.6-133.7l-0.3-0.6l1.5-1.2l54.5,128.9l0.3,0.8l41.3-33.3l44.1,40.1
		l39.6-30.4l0.1-0.1l43-57.5l65.7-53.3l56.6,133.7l0.3,0.8l41.3-33.3l44.1,40.1l9.7-7.9l0.4-0.3l-0.4-0.5l-0.4-0.5l-9.3,7.5
		l-44.1-40.1l-40.9,32.9L1385,925.4l-0.3-0.8l-67,54.4l-0.1,0l-43,57.5l-38.7,29.7l-44.1-40.1l-40.9,32.9l-54.4-128.4l1.5-1.2
		l52.1,123l0.3,0.8l41.3-33.3l44.1,40.1l39.6-30.4l0.1-0.1l43-57.5l65.7-53.3l56.6,133.7l0.3,0.8l41.3-33.3l44.1,40.1l9.7-7.9
		l0.4-0.3l-0.4-0.5l-0.4-0.5l-9.3,7.5l-44.1-40.1l-40.9,32.9L1385,917.5l-0.3-0.8l-67,54.4l-0.1,0l-43,57.5l-38.7,29.7l-44.1-40.1
		l-40.9,32.9l-51.9-122.6l1.5-1.2l49.6,117.2l0.3,0.8l41.3-33.3l44.1,40.1l39.6-30.4l0.1-0.1l43-57.5l65.7-53.3l56.6,133.7l0.3,0.8
		l41.3-33.3l44.1,40.1l9.7-7.9l0.4-0.3l-0.4-0.5l-0.4-0.5l-9.3,7.5l-44.1-40.1l-40.9,32.9L1385,909.6l-0.3-0.8l-67,54.4l-0.1,0
		l-43,57.5l-38.7,29.7l-44.1-40.1l-40.9,32.9l-49.4-116.8l1.5-1.2l47.1,111.3l0.3,0.8l41.3-33.3l44.1,40.1l39.6-30.4l0.1-0.1
		l43-57.5l65.7-53.3l56.6,133.7l0.3,0.8l41.3-33.3l44.1,40.1l9.7-7.9l0.4-0.3l-0.4-0.5l-0.4-0.5l-9.3,7.5l-44.1-40.1l-40.9,32.9
		L1385,901.8l-0.3-0.8l-67,54.4l-0.1,0l-43,57.5l-38.7,29.7l-44.1-40.1l-40.9,32.9l-47-110.9l1.5-1.2l44.7,105.5l0.3,0.8l41.3-33.3
		l44.1,40.1l39.6-30.4l0.1-0.1l43-57.5l65.7-53.3l56.6,133.7l0.3,0.8l41.3-33.3l44.1,40.1l9.7-7.9l0.4-0.3l-0.8-1l-9.3,7.5
		l-44.1-40.1l-40.9,32.9L1385,893.9l-0.3-0.8l-67,54.4l-0.1,0l-43,57.5l-38.7,29.7l-44.1-40.1l-40.9,32.9l-16.8-39.7l2.9-2.3l-0.8-1
		l-2.6,2.1l-2-4.7l5.4-4.4l-0.8-1l-5.1,4.1l-2-4.7l7.9-6.4l-0.8-1l-7.6,6.2l-2-4.7l10.4-8.4l-0.8-1l-10.2,8.2l-2-4.7l12.9-10.5
		l-0.8-1l-12.7,10.3l-2-4.7l15.5-12.5l-0.8-1l-15.2,12.3l-2-4.7l18-14.6l-0.8-1l-17.7,14.3l-2-4.7l20.5-16.6l-0.8-1L1116,945l-2-4.7
		l23-18.6l-0.8-1l-22.7,18.4l-2-4.7l25.5-20.7l-0.8-1l-25.2,20.4l-2-4.7l28-22.7l-0.8-1l-27.8,22.5l-2-4.7l30.2-24.8v-86.1l10.5-8.5
		l-1.9-2.4l-9.7,7.9l-44.1-40.1l-69.6,56.3l1.9,2.4l35.4-28.7l33.6,30.5v14.2l-70,56.6v0l19.9,34.6l-2.6,2.1l-21-35.9l-79.6,23.6
		l-0.1,0l-53.9,43.7l-55-49.9l-0.4-0.4l-12.2,9.7l-14.2-33.5l-0.3-0.8l-67,54.4l-0.1,0l-43,57.5l-38.7,29.7L610.9,995l-0.4-0.4
		l-40.9,32.9l-56.9-134.4l-60.7,49l0.4,0.5l0.4,0.5l59.4-48l56.6,133.7l0.3,0.8l41.3-33.3l44.1,40.1l39.6-30.4l0.1-0.1l43-57.5
		l65.7-53.3l56.6,133.7l0.3,0.8l41.3-33.3l44.1,40.1l39.1-30.4l0.1-0.1l43-57.5l15.9-12.8l2.5,4.3l-19.2,15.5l-0.1,0l-43,57.5
		l-38.2,29.7l-44.1-40.1l-40.9,32.9l-56.6-133.7l-0.3-0.8l-67,54.4l-0.1,0l-43,57.5l-38.7,29.7l-43.7-39.7l-0.4-0.4l-40.9,32.9
		L512.7,901l-60.3,48.7L452,950l0.4,0.5l0.4,0.5l59.4-48l56.6,133.7l0.3,0.8l41.3-33.3l44.1,40.1l39.6-30.4l0.1-0.1l43-57.5
		l65.7-53.3l56.6,133.7l0.3,0.8l41.3-33.3l44.1,40.1l39.1-30.4l0.1-0.1l43-57.5l19-15.3l2.5,4.3l-22.3,18l-0.1,0l-43,57.5
		l-38.2,29.7l-44.1-40.1l-40.9,32.9l-56.6-133.7l-0.3-0.8l-67,54.4l-0.1,0l-43,57.5l-38.7,29.7l-43.7-39.7l-0.4-0.4l-40.9,32.9
		l-56.9-134.4l-60.3,48.7l-0.4,0.3l0.4,0.5l0.4,0.5l59.4-48l56.6,133.7l0.3,0.8l41.3-33.3l44.1,40.1l39.6-30.4l0.1-0.1l43-57.5
		l65.7-53.3l56.6,133.7l0.3,0.8l41.3-33.3l44.1,40.1l39.1-30.4l0.1-0.1l43-57.5l22.1-17.8l2.5,4.3l-25.4,20.5l-0.1,0l-43,57.5
		l-38.2,29.7l-44.1-40.1l-40.9,32.9l-56.6-133.7l-0.3-0.8l-67,54.4l-0.1,0l-43,57.5l-38.7,29.7l-43.7-39.7l-0.4-0.4l-40.9,32.9
		l-56.9-134.4l-60.3,48.7l-0.4,0.3l0.4,0.5l0.4,0.5l59.4-48l56.6,133.7l0.3,0.8l41.3-33.3l44.1,40.1l39.6-30.4l0.1-0.1l43-57.5
		l65.7-53.3l56.6,133.7l0.3,0.8l41.3-33.3l44.1,40.1l39.1-30.4l0.1-0.1l43-57.5l25.2-20.3l2.5,4.3l-28.5,22.9l-0.1,0l-43,57.5
		l-38.2,29.7l-44.1-40.1l-40.9,32.9l-56.6-133.7l-0.3-0.8l-67,54.4l-0.1,0l-43,57.5l-38.7,29.7l-43.7-39.7l-0.4-0.4l-40.9,32.9
		l-56.9-134.4l-60.3,48.7l-0.4,0.3l0.4,0.5l0.4,0.5l59.4-48l56.6,133.7l0.3,0.8l41.3-33.3l44.1,40.1l39.6-30.4l0.1-0.1l43-57.5
		l65.7-53.3l56.6,133.7l0.3,0.8l41.3-33.3l44.1,40.1l39.1-30.4l0.1-0.1l43-57.5l28.3-22.8l2.5,4.3l-31.6,25.4l-0.1,0l-43,57.5
		l-38.2,29.7l-44.1-40.1l-40.9,32.9l-56.6-133.7l-0.3-0.8l-67,54.4l-0.1,0l-43,57.5l-38.7,29.7l-43.7-39.7l-0.4-0.4l-40.9,32.9
		l-56.9-134.4l-60.3,48.7l-0.4,0.3l0.4,0.5l0.4,0.5L512.2,934.5z M1092.7,902.1l-12.3,9.9l-2.5-4.3l14.8-11.9V902.1z M1092.7,903.7
		v6.3l-9.2,7.4l-2.5-4.3L1092.7,903.7z M1092.7,911.6v6.3l-6.1,4.9l-2.5-4.3L1092.7,911.6z M1092.7,919.4v6.3l-3,2.4l-2.5-4.3
		L1092.7,919.4z M1092.7,927.3v2l-1.5,1.2l-0.8-1.4L1092.7,927.3z M1058.9,874.6l33.9-27.4v47l-15.4,12.4L1058.9,874.6z
		 M830.1,919.3l55.4,50.3l54.6-44.2l78.6-23.3l20.6,35.2l-2.2,1.8l-17.8-30.5l-79.6,23.6l-0.1,0l-53.9,43.7l-55-49.9l-0.4-0.4
		l-9.7,7.7l-2-4.8L830.1,919.3z M939.5,1028l-0.1,0l-0.8,0.6l-3.7-3.4l5.1-4.1l36.7-10.9l-13.9,10.8L939.5,1028z M960.1,1023.2
		l-14.8,11.5l-5.7-5.2l0.5-0.4L960.1,1023.2z M939.5,1020l-0.1,0l-5.4,4.4l-3.7-3.4l9.7-7.9l48-14.2l-4.5,6.1l-4.1,3.2L939.5,1020z
		 M939.5,1012l-0.1,0l-10.1,8.2l-3.7-3.4l14.4-11.6l55.7-16.5l-6.4,8.6L939.5,1012z M939.5,1004.1l-0.1,0l-14.7,11.9l-3.7-3.4
		l19-15.4l63.3-18.8l-6.4,8.6L939.5,1004.1z M939.5,996.1l-0.1,0l-19.4,15.7l-3.7-3.4l23.7-19.2l71-21l-6.4,8.6L939.5,996.1z
		 M939.5,988.1l-0.1,0l-24,19.4l-3.7-3.4l28.3-22.9l78.6-23.3l0,0.1l-6.3,8.5L939.5,988.1z M1019.1,956.5l-79.6,23.6l-0.1,0
		l-28.7,23.2l-3.7-3.4l33-26.7l78.6-23.3l2.7,4.6l-1.8,2.4L1019.1,956.5z M1019.1,948.6l-79.6,23.6l-0.1,0l-33.3,27l-3.7-3.4
		l37.6-30.5l78.6-23.3l5.3,9l-1.8,2.4L1019.1,948.6z M1019.1,940.6l-79.6,23.6l-0.1,0l-38,30.7l-0.3-0.3l-16,12.9L831,958.4
		l-2.5-5.9l1.5-1.2l55.4,50.3l54.6-44.2l78.6-23.3l7.9,13.5l-1.8,2.4L1019.1,940.6z M858.5,1023.2l-4.3-10.2l11.4,10.3l-3.7,3
		L858.5,1023.2z M860.9,1027.1l-0.6,0.5l-0.7-1.6L860.9,1027.1z M853,1010.3l-4.3-10.2l21.5,19.6l-3.7,3L853,1010.3z M847.5,997.3
		l-4.3-10.2l31.7,28.8l-3.7,3L847.5,997.3z M842,984.3l-4.3-10.2l41.8,38l-3.7,3L842,984.3z M836.5,971.4l-4.3-10.2l52,47.2l-3.7,3
		L836.5,971.4z M1019.1,932.6l-79.6,23.6l-0.1,0l-53.9,43.7l-55-49.9l-0.4-0.4l-2.1,1.7l-2-4.8l4.1-3.2l55.4,50.3l54.6-44.2
		l78.6-23.3l11.1,18.9l-2.2,1.8L1019.1,932.6z M1019.1,924.6l-79.6,23.6l-0.1,0l-53.9,43.7l-55-49.9l-0.4-0.4l-4.6,3.7l-2-4.8
		l6.6-5.2l55.4,50.3l54.6-44.2l78.6-23.3l14.2,24.4l-2.2,1.8L1019.1,924.6z M1019.1,916.6l-79.6,23.6l-0.1,0l-53.9,43.7l-55-49.9
		l-0.4-0.4l-7.2,5.7l-2-4.8l9.1-7.3l55.4,50.3l54.6-44.2l78.6-23.3l17.4,29.8l-2.2,1.8L1019.1,916.6z"/>
	<polygon points="901.8,450.4 1106.2,450.4 1163.8,502.6 1164.6,501.7 1106.7,449.1 901.4,449.1 836.5,501.7 837.2,502.6 	"/>
	<polygon points="1091.4,760.8 1021.4,817.5 1022.2,818.4 1091.4,762.4 1135.9,803.1 1145.6,795.3 1144.8,794.3 1135.9,801.5 	"/>
	<polygon points="901.8,442.3 1106.2,442.3 1163.8,494.6 1164.6,493.6 1106.7,441.1 901.4,441.1 836.5,493.6 837.2,494.6 	"/>
	<polygon points="1144.8,786.3 1135.9,793.5 1091.4,752.8 1021.4,809.4 1022.2,810.4 1091.4,754.4 1135.9,795.1 1145.6,787.2 	"/>
	<polygon points="901.8,434.3 1106.2,434.3 1163.8,486.5 1164.6,485.6 1106.7,433 901.4,433 836.5,485.6 837.2,486.6 	"/>
	<polygon points="1144.8,778.2 1135.9,785.4 1091.4,744.7 1021.4,801.4 1022.2,802.4 1091.4,746.4 1135.9,787.1 1145.6,779.2 	"/>
	<polygon points="901.8,426.2 1106.2,426.2 1163.8,478.5 1164.6,477.6 1106.7,425 901.4,425 836.5,477.5 837.2,478.5 	"/>
	<polygon points="1144.8,770.2 1135.9,777.4 1091.4,736.7 1021.4,793.4 1022.2,794.3 1091.4,738.3 1135.9,779 1145.6,771.2 	"/>
	<polygon points="901.8,418.2 1106.2,418.2 1163.8,470.5 1164.6,469.5 1106.7,417 901.4,417 836.5,469.5 837.2,470.5 	"/>
	<polygon points="1144.8,762.1 1135.9,769.4 1091.4,728.7 1021.4,785.3 1022.2,786.3 1091.4,730.3 1135.9,771 1145.6,763.1 	"/>
	<polygon points="901.8,410.2 1106.2,410.2 1163.8,462.4 1164.6,461.5 1106.7,408.9 901.4,408.9 836.5,461.5 837.2,462.5 	"/>
	<polygon points="1144.8,754.1 1135.9,761.3 1091.4,720.6 1021.4,777.3 1022.2,778.3 1091.4,722.3 1135.9,763 1145.6,755.1 	"/>
	<polygon points="901.8,402.1 1106.2,402.1 1163.8,454.4 1164.6,453.5 1106.7,400.9 901.4,400.9 836.5,453.4 837.2,454.4 	"/>
	<polygon points="1144.8,746.1 1135.9,753.3 1091.4,712.6 1021.4,769.3 1022.2,770.2 1091.4,714.2 1135.9,754.9 1145.6,747.1 	"/>
	<polygon points="901.8,394.1 1106.2,394.1 1163.8,446.4 1164.6,445.4 1106.7,392.9 901.4,392.9 836.5,445.4 837.2,446.4 	"/>
	<polygon points="1144.8,738 1135.9,745.2 1091.4,704.6 1021.4,761.2 1022.2,762.2 1091.4,706.2 1135.9,746.9 1145.6,739 	"/>
	<polygon points="901.8,386.1 1106.2,386.1 1163.8,438.3 1164.6,437.4 1106.7,384.8 901.4,384.8 836.5,437.4 837.2,438.3 	"/>
	<polygon points="1144.8,730 1135.9,737.2 1091.4,696.5 1021.4,753.2 1022.2,754.2 1091.4,698.2 1135.9,738.9 1145.6,731 	"/>
	<polygon points="901.8,378 1106.2,378 1163.8,430.3 1164.6,429.4 1106.7,376.8 901.4,376.8 836.5,429.3 837.2,430.3 	"/>
	<polygon points="1144.8,722 1135.9,729.2 1091.4,688.5 1021.4,745.2 1022.2,746.1 1091.4,690.1 1135.9,730.8 1145.6,722.9 	"/>
	<polygon points="830.1,911 885.5,961.2 939.7,917.3 939.7,917.3 939.7,687.4 988.8,687.4 1031.7,726.1 1021.3,734.6 1023.2,737 
		1034,728.2 1088.3,684.4 1042,642.5 1052.5,634 1050.6,631.7 1039.7,640.5 989.2,681.3 939.7,681.3 939.7,462.7 1010.5,462.7 
		1109.9,552.9 1164.2,509.1 1106.5,456.7 901.6,456.7 836.8,509.1 838.8,511.4 849.6,502.7 870.7,521.8 870.7,874.1 817.2,917.3 
		819.1,919.7 	"/>
	<path d="M978.4,1823.3L978.4,1823.3l35.4,61.3l78.5-63.6v-24.9V1735l10.5-8.5l-1.9-2.4l-9.7,7.9h0L1047,1692l-69.6,56.3l1.9,2.4
		l35.4-28.7l33.6,30.5v14.2l-36.4,29.5L978.4,1823.3L978.4,1823.3z M1048.3,1770.6v25.6v56.6l-1.5,1.2l-32.3-56l2.3-1.9
		L1048.3,1770.6z"/>
	<path d="M891.5,1853.4l34.4,31.3l45-36.5l-1.9-2.4l-10.9,8.8l-14.6-13.2l0,0l0-45.2l0-201.2l-54.6,44.2v0.8
		c7.4,2.3,10.7,10.1,10.7,19v137.2v46.6l-19.8,16l-1.2,1l1.2,1.5l0.7,0.8L891.5,1853.4z"/>
	<path d="M1013.8,2192.4l78.5-63.6v-86.1l10.5-8.5l-1.9-2.4l-9.7,7.9h0l-44.1-40.1l-69.6,56.3l1.9,2.4l35.4-28.7l33.6,30.5v14.2
		l-70,56.6l0,0h0L1013.8,2192.4z M1048.3,2078.4v82.2l-1.5,1.2l-32.3-56L1048.3,2078.4z"/>
	<path d="M878.7,2237.9l1.9,2.4l10.9-8.7l34.4,31.3l45-36.5l-1.9-2.4l-10.9,8.8l-14.6-13.2l0,0l0-286l8.8-7.2l55.3,97.2l39.4-32.1
		l42.5,38.8l0.4,0.4l9.7-7.8l30.5,7.3l44.5-36.1l33.6,30.9l11.7-9.3l-0.8-1l-10.8,8.6l-33.6-30.9l-44.9,36.4l-30.5-7.3l-9.3,7.5
		l-42.9-39.2l-39.1,31.9l-54.7-96.1l2.1-1.7l52.2,91.9l39.4-32.1l42.5,38.8l0.4,0.4l9.7-7.8l30.5,7.3l44.5-36.1l33.6,30.9l11.7-9.3
		l-0.8-1l-10.8,8.6l-33.6-30.9l-44.9,36.4l-30.5-7.3l-9.3,7.5l-42.9-39.2l-39.1,31.9l-51.6-90.8l2.1-1.7l49.2,86.5l39.4-32.1
		l42.5,38.8l0.4,0.4l9.7-7.8l30.5,7.3l42-34h4.8l31.3,28.8l11.7-9.3l-0.8-1l-10.8,8.6l-31-28.5v-6.2l31,28.5l11.7-9.3l-0.8-1
		l-10.8,8.6l-31-28.5v-6.2l31,28.5l11.7-9.3l-0.8-1l-10.8,8.6l-31-28.5v-6.2l31,28.5l11.7-9.3l-0.8-1l-10.8,8.6l-31-28.5v-6.2
		l31,28.5l11.7-9.3l-0.8-1l-10.8,8.6l-31-28.5v-6.2l31,28.5l11.7-9.3l-0.8-1l-10.8,8.6l-31-28.5v-6.2l31,28.5l11.7-9.3l-0.8-1
		l-10.8,8.6l-31-28.5v-6.2l31,28.5l11.7-9.3l-0.8-1l-10.8,8.6l-31-28.5v-147.3h-6.1v147.9l-41.3,33.5l-30.5-7.3l-9.3,7.5l-41.8-38.2
		l44.6-36.1l-0.4-0.5l-0.4-0.5l-77.9,63.1l-27.8-48.9l-42.7,34.8l0-6l42.4-34.5l27.8,48.9l78.7-63.7l0.4-0.3l-0.4-0.5l-0.4-0.5
		l-77.9,63.1l-27.8-48.9l-42.7,34.8v-6l42.4-34.5l27.8,48.9l78.7-63.7l0.4-0.3l-0.4-0.5l-0.4-0.5l-77.9,63.1l-27.8-48.9l-42.7,34.8
		l0-6l42.4-34.5l27.8,48.9l78.7-63.7l0.4-0.3l-0.4-0.5l-0.4-0.5l-77.9,63.1l-27.8-48.9l-42.7,34.8v-6l42.4-34.5l27.8,48.9l78.7-63.7
		l0.4-0.3l-0.4-0.5l-0.4-0.5l-77.9,63.1l-27.8-48.9l-60.1,49l-34.4-31.3l-11,8.7l0.8,1l10.2-8l34.2,31.1l-3.5,2.8l-30.7-27.9
		l-11,8.7l0.8,1l10.2-8l29.8,27l-3.5,2.8l-26.3-23.8l-11,8.6l-0.1,0.1l0.1,0.1l0.7,0.9l10.2-8l25.3,23l-3.5,2.8l-21.8-19.8
		l-10.8,8.5l-0.2,0.2l0.2,0.3l0.5,0.7l10.2-8l20.9,19l-3.5,2.8l-17.4-15.8l-10.7,8.4l-0.4,0.3l0.8,1l10.2-8l2.6,2.4l-13.6,11.1
		l0.8,1l13.8-11.2l3.6,3.3l-18.2,14.8l0.8,1l18.4-14.9l3.6,3.3l-22.8,18.5l0.8,1l22.9-18.7l3.7,3.4l-19.1,15.5v0.8
		c7.4,2.3,10.7,10.1,10.7,19V2221L878.7,2237.9z M1130,2013l-30.5-7.3l-9.3,7.5l-42.9-39.2l-39.1,31.9l-48.6-85.4l2.1-1.7l46.1,81.1
		l39.4-32.1l42.5,38.8l0.4,0.4l9.7-7.8l30.5,7.3l41-33.2v6.3L1130,2013z M1007.7,1968.5l39.4-32.1l42.5,38.8l0.4,0.4l9.7-7.8
		l30.5,7.3l41-33.2v6.3l-41.3,33.5l-30.5-7.3l-9.3,7.5l-42.9-39.2l-39.1,31.9l-36.3-63.9l2.1-1.7L1007.7,1968.5z M974.8,1908.1
		l2.1-1.7l30.8,54.2l39.4-32.1l42.5,38.8l0.4,0.4l9.7-7.8l30.5,7.3l41-33.2v6.3l-41.3,33.5l-30.5-7.3l-9.3,7.5l-42.9-39.2
		l-39.1,31.9L974.8,1908.1z M1007.7,1976.4l39.4-32.1l42.5,38.8l0.4,0.4l9.7-7.8l30.5,7.3l41-33.2v6.3l-41.3,33.5l-30.5-7.3
		l-9.3,7.5l-42.9-39.2l-39.1,31.9l-39.4-69.2l2.1-1.7L1007.7,1976.4z M1007.7,1984.2l39.4-32.1l42.5,38.8l0.4,0.4l9.7-7.8l30.5,7.3
		l41-33.2v6.3l-41.3,33.5l-30.5-7.3l-9.3,7.5l-42.9-39.2l-39.1,31.9l-42.4-74.6l2.1-1.7L1007.7,1984.2z M1007.7,1992.1l39.4-32.1
		l42.5,38.8l0.4,0.4l9.7-7.8l30.5,7.3l41-33.2v6.3l-41.3,33.5l-30.5-7.3l-9.3,7.5l-42.9-39.2l-39.1,31.9l-45.5-80l2.1-1.7
		L1007.7,1992.1z M1089.7,1959.5l0.4,0.4l9.7-7.8l30.5,7.3l41-33.2v6.3l-41.3,33.5l-30.5-7.3l-9.3,7.5l-42.9-39.2l-39.1,31.9
		l-30.2-53.1l2.1-1.7l27.8,48.8l6-4.9l0,0.1l33.5-27.1L1089.7,1959.5z M1007.7,1944.9l3-2.4l2.4,4.3l-5,4.1l-27.1-47.7l2.1-1.7
		L1007.7,1944.9z M984,1900.6l2-1.6l24.1,42.3l-2,1.6L984,1900.6z"/>
	<path d="M833.8,1442.9l5.1-4.2l30.3-24.5l27,24.5l6.6,6v14.2l-45.2,36.6l-24.7,20l0,0h0l35.4,61.3l78.5-63.6v-17.8v-56.8v-11.5
		l10.5-8.5l-1.9-2.4l-9.7,7.9h0l-44.1-40.1l-67.4,54.5l-2.2,1.8L833.8,1442.9z M902.8,1544.9l-1.5,1.2l-29.3-50.7l-3.1-5.3
		l33.9-27.4v32.7V1544.9z"/>
	<path d="M733.2,1551.9l1.9,2.4l10.9-8.7l34.4,31.3l45-36.5l-1.9-2.4l-10.9,8.8l-14.6-13.2l0,0l0-38l0-56.8l0-151.6l-50.8,41.1
		l-0.7,0.6l-0.6-0.6l-14.8,11.7l-75.6-43.9l-166.2,133.9l-34.4-31.3l-11.3,9.1l0.8,1l10.5-8.4l34.4,31.3l166.4-134l75.6,43.9
		l12.1-9.6v0.3c4.7,1.4,7.7,5.1,9.3,9.8l-6.8-6.1l-14.8,11.7l-75.6-43.9l-166.2,133.9l-34.4-31.3l-11.3,9.1l0.8,1l10.5-8.4
		l34.4,31.3l166.4-134l75.6,43.9l14.6-11.5l7.4,6.8c0.5,2.1,0.7,4.3,0.7,6.6l-8.1-7.4l-14.8,11.7l-75.6-43.9l-166.2,133.9
		l-34.4-31.3l-11.3,9.1l0.8,1l10.5-8.4l34.4,31.3l166.4-134l75.6,43.9l14.6-11.5l8.2,7.4v5.9l-8.1-7.4l-14.8,11.7l-75.6-43.9
		l-166.2,133.9l-34.4-31.3l-11.3,9.1l0.8,1l10.5-8.4l34.4,31.3l166.4-134l75.6,43.9l14.6-11.5l8.2,7.4v5.9l-8.1-7.4l-14.8,11.7
		l-75.6-43.9l-166.2,133.9l-34.4-31.3l-11.3,9.1l0.8,1l10.5-8.4l34.4,31.3l166.4-134l75.6,43.9l14.6-11.5l8.2,7.4v5.9l-8.1-7.4
		l-14.8,11.7l-75.6-43.9l-166.2,133.9l-34.4-31.3l-11.3,9.1l0.8,1l10.5-8.4l34.4,31.3l166.4-134l75.6,43.9L746,1368l8.2,7.4v120
		v39.5L733.2,1551.9z"/>
	<path d="M1192.5,1384.2l-67.4,54.5l-2.2,1.8l1.9,2.4l5.1-4.2l30.3-24.5l27,24.5l6.6,6v14.2l-45.2,36.6l-24.7,20v0l35.4,61.3
		l77.5-62.7l1-0.8v-74.6v-11.5l7.8-6.3l2.7-2.2l-1.9-2.4l-0.8,0.7l-8.9,7.2L1192.5,1384.2z M1192.3,1546.2l-29.3-50.7l-3.1-5.3
		l33.9-27.4v32.7v49.4L1192.3,1546.2z"/>
	<path d="M1045.2,1605.4l-21,17l1.9,2.4l10.9-8.7l34.4,31.3l45-36.5l-1.9-2.4l-10.9,8.8l-14.6-13.2l0,0l0-108.4l0-56.8l0-151.6
		l-54.6,44.2v0.8c7.4,2.3,10.7,10.1,10.7,19v87.6v56.8V1605.4z"/>
	<path d="M832.9,1207.7L832.9,1207.7L832.9,1207.7l35.4,61.3l78.5-63.6v-55.8v-30.2l10.5-8.5l-1.9-2.4l-9.7,7.9h0l-44.1-40.1
		l-69.6,56.3l1.9,2.4l35.4-28.7l33.6,30.5v12.7v1.4L832.9,1207.7z M902.8,1237.1l-1.5,1.2l-32.3-56l33.9-27.4V1237.1z"/>
	<path d="M666.2,1110.9l-1.9-2.4l-9.7,7.9h0l-44.1-40.1l-69.6,56.3l1.9,2.4l35.4-28.7l33.6,30.5v12.7v1.4l-70,56.6l0,0h0l35.4,61.3
		l78.5-63.6v-55.8v-30.2L666.2,1110.9z M611.8,1237.1l-1.5,1.2l-32.3-56l33.9-27.4V1237.1z"/>
	<path d="M452.4,1023.5v0.8c7.4,2.3,10.7,10.1,10.7,19v106.3v147.9l-21,17l1.9,2.4l10.9-8.7l34.4,31.3l45-36.5l-1.9-2.4l-10.9,8.8
		l0,0l-14.6-13.2l0,0l0-146.5l0-170.3L452.4,1023.5z"/>
	<path d="M1248.3,1110.9l-1.9-2.4l-9.7,7.9l-44.1-40.1l-69.6,56.3l1.9,2.4l35.4-28.7l33.6,30.5v12.7v1.4l-70,56.6v0l35.4,61.3
		l78.5-63.6v-55.8v-30.2L1248.3,1110.9z M1193.8,1237.1l-1.5,1.2l-32.3-56l33.9-27.4V1237.1z"/>
	<path d="M1089.1,979.3l-54.6,44.2v0.8c7.4,2.3,10.7,10.1,10.7,19v106.3v77.5l-21,17l1.9,2.4l10.9-8.7l7.9,7.1l-3.8,3.1l-4.1-3.7
		l-11,8.8l-79-40.8l-0.4-0.2l-78.2,63.3l-27.8-48.9l-20.9,17.3l-1.9-4.5l7.9-6.5l-1.9-2.4l-7.9,6.4l-2.9,2.3l-14.9-13.5l0,0l0-14.9
		l0-61.1l0-170.3l-54.6,44.2v0.8c7.4,2.3,10.7,10.1,10.7,19v106.3v77.5l-21,17l1.9,2.4l10.9-8.7l3.6,3.3l-18.4,14.8l-75.6-43.9
		l-166.2,133.9l-34.4-31.3l-11.3,9.1l0.8,1l10.5-8.4l34.4,31.3l166.4-134l75.6,43.9l19.2-15.5l3.6,3.2l-11.4,9.2l0,0l-11.5,9.1
		l-75.6-43.9l-166.2,133.9l-34.4-31.3l-11.3,9.1l0.8,1l10.5-8.4l34.4,31.3l166.4-134l75.6,43.9l13-10.3v-0.1l10.7-8.7l3.5,3.2
		l-14.2,11.5l-1.7,1.4l0,0l-11.5,9.1l-75.6-43.9l-166.2,133.9l-34.4-31.3l-11.3,9.1l0.8,1l10.5-8.4l34.4,31.3l166.4-134l75.6,43.9
		l13-10.3v-0.1l15.2-12.3l3.5,3.2l-18.7,15.1l-1.7,1.4l0,0l-11.4,9l-75.6-43.9l-166.2,133.9l-34.4-31.3l-11.3,9.1l0.8,1l10.5-8.4
		l34.4,31.3l166.4-134l75.6,43.9l13-10.3l0-0.1l19.6-15.8l3.5,3.2l-23.1,18.7l-1.7,1.4l0,0l-11.5,9.1l-75.6-43.9l-166.2,133.9
		l-34.4-31.3l-11.3,9.1l0.8,1l10.5-8.4l34.4,31.3l166.4-134l75.6,43.9l13-10.3v-0.1l24.1-19.4l3.5,3.2l-27.6,22.3l-1.7,1.4l0,0
		l-11.5,9.1l-75.6-43.9l-166.2,133.9l-34.4-31.3l-11.3,9.1l0.8,1l10.5-8.4l34.4,31.3l166.4-134l75.6,43.9l13-10.3v-0.1l28.5-23
		l3.5,3.2l-32,25.9l-1.7,1.4l0,0l-11.5,9.1l-75.6-43.9l-166.2,133.9l-34.4-31.3l-11.3,9.1l0.8,1l10.5-8.4l34.4,31.3l166.4-134
		l75.6,43.9l13-10.3v0l33-26.6l3.4,3.1l-36.3,29.6l-1.7,1.4l0,0l-11.5,9.1l-75.6-43.9l-166.2,133.9l-34.4-31.3l-11.3,9.1l0.8,1
		l10.5-8.4l34.4,31.3l166.4-134l75.6,43.9l13-10.3v0l58.3-47.5l56.7,133.9l0.3,0.8l41.3-33.3l44.1,40.1l39.1-30.4l0.1-0.1l43-57.5
		l66-53.5l56.7,133.9l0.3,0.8l41.3-33.3l44.1,40.1l9.6-7.8l16.6-13.5l2.6,3.9l-19.1,15.6l-9.6,7.8l-44.1-40.1l-40.9,32.9
		l-56.6-133.7l-0.3-0.8l-67.5,54.4l-0.1,0l-43,57.5l-38.2,29.7l-44.1-40.1l-40.9,32.9l-56.9-134.4l-59,47.7l-1.7,1.4l0,0l-11.5,9.1
		l-75.6-43.9L489.4,1407l-34.4-31.3l-11.3,9.1l0.8,1l10.5-8.4l34.4,31.3l166.4-134l75.6,43.9l13-10.3v0l58.5-47.3l56.6,133.7
		l0.3,0.8l41.3-33.3l44.1,40.1l39.1-30.4l0.1-0.1l43-57.5l66.2-53.3l56.6,133.7l0.3,0.8l41.3-33.3l44.1,40.1l9.6-7.8l19.8-16.1
		l2.6,3.9l-22.4,18.2l-9.6,7.8l-44.1-40.1l-40.9,32.9l-56.6-133.7l-0.3-0.8l-67.5,54.4l-0.1,0l-43,57.5l-38.2,29.7l-44.1-40.1
		l-40.9,32.9l-56.9-134.4l-59,47.7l-1.7,1.4l0,0l-11.5,9.1l-75.6-43.9l-166.2,133.9l-34.4-31.3l-11.3,9.1l0.8,1l10.5-8.4l34.4,31.3
		l166.4-134l75.6,43.9l13-10.3v0l58.5-47.3l56.6,133.7l0.3,0.8l41.3-33.3l44.1,40.1l39.1-30.4l0.1-0.1l43-57.5l66.2-53.3l56.6,133.7
		l0.3,0.8l41.3-33.3l44.1,40.1l9.6-7.8l23.1-18.8l2.6,4l-25.7,20.8l-9.6,7.8l-44.1-40.1l-40.9,32.9l-56.6-133.7l-0.3-0.8l-67.5,54.4
		l-0.1,0l-43,57.5l-38.2,29.7l-44.1-40.1l-40.9,32.9l-56.9-134.4l-59,47.7l-1.7,1.4l0,0l-11.5,9.1l-75.6-43.9l-166.2,133.9L455,1391
		l-11.3,9.1l0.8,1l10.5-8.4l34.4,31.3l166.4-134l75.6,43.9l13-10.3v0l58.5-47.3l56.6,133.7l0.3,0.8l41.3-33.3l44.1,40.1l39.1-30.4
		l0.1-0.1l43-57.5l66.2-53.3l56.6,133.7l0.3,0.8l41.3-33.3l44.1,40.1l9.6-7.8l26.4-21.4l40.9,62.5l15.2-12.3l34.4,31.3l166.7-134.3
		l-0.8-1l-165.9,133.6l-34.4-31.3l-15,12.1l-74.8-114.3l-0.4-0.6l-8.6,7l-3.5-3.2l11.8-9.6l74.8,114.3l0.4,0.6l15.2-12.3l34.4,31.3
		l166.7-134.3l-0.8-1l-165.9,133.6l-34.4-31.3l-15,12.1l-74.8-114.3l-0.4-0.6l-13,10.6l-3.5-3.2l16.3-13.2l75.1,114.9l15.2-12.3
		l34.4,31.3l166.7-134.3l-0.8-1l-165.9,133.6l-34.4-31.3l-15,12.1l-75.1-114.9l-17.5,14.2l-3.5-3.2l20.7-16.8l74.8,114.3l0.4,0.6
		l15.2-12.3l34.4,31.3l166.7-134.3l-0.8-1l-165.9,133.6l-34.4-31.3l-15,12.1l-75.1-114.9l-21.9,17.8l-3.5-3.2l25.2-20.4l74.8,114.3
		l0.4,0.6l15.2-12.3l34.4,31.3l166.7-134.3l-0.8-1l-165.9,133.6l-34.4-31.3l-15,12.1l-75.1-114.9l-26.4,21.4l-3.5-3.2l29.6-24
		l74.8,114.3l0.4,0.6l15.2-12.3l34.4,31.3l166.7-134.3l-0.8-1l-165.9,133.6l-34.4-31.3l-15,12.1l-75.1-114.9l-30.8,25l-3.6-3.2
		l34.1-27.5l74.8,114.3l0.4,0.6l15.2-12.3l34.4,31.3l166.7-134.3l-0.8-1l-165.9,133.6l-34.4-31.3l-15,12.1l-75.1-114.9l-35.3,28.5
		l-3.5-3.1l38.5-31.2l74.8,114.3l0.4,0.6l15.2-12.3l34.4,31.3l166.7-134.3l-0.8-1l-165.9,133.6l-34.4-31.3l-15,12.1l-75.1-114.9
		l-39.7,32.2l-3.5-3.2l42.9-34.8l74.8,114.3l0.4,0.6l15.2-12.3l34.4,31.3l166.7-134.3l-0.8-1L1362.5,1407l-34.4-31.3l-15,12.1
		l-75.1-114.9l-44.2,35.8l-1.9-1.8l-33.7,27.2l-26.4-46l-2,1.6l-1.9-4.5l3.5-2.8l27.8,48.4l78.5-63.6l74.8,114.3l0.4,0.6l15.2-12.3
		l34.4,31.3l166.7-134.3l-0.8-1l-165.9,133.6l-34.4-31.3l-15,12.1l-75.1-114.9l-78.5,63.5l-27.8-48.4l-4.4,3.5l-1.9-4.5l5.9-4.8
		l27.8,48.4l78.5-63.6l74.8,114.3l0.4,0.6l15.2-12.3l34.4,31.3l166.7-134.3l-0.8-1l-165.9,133.6l-34.4-31.3l-15,12.1l-75.1-114.9
		l-78.5,63.5l-27.8-48.4l-6.8,5.5l-1.9-4.5l8.3-6.7l27.8,48.4l78.5-63.6l74.8,114.3l0.4,0.6l15.2-12.3l34.4,31.3l166.7-134.3l-0.8-1
		l-165.9,133.6l-34.4-31.3l-15,12.1l-75.1-114.9l-78.5,63.5l-27.8-48.4l-9.2,7.4l-1.9-4.5l10.8-8.7l27.8,48.4l78.5-63.6l74.8,114.3
		l0.4,0.6l15.2-12.3l34.4,31.3l166.7-134.3l-0.8-1l-165.9,133.6l-34.4-31.3l-15,12.1l-75.1-114.9l-78.5,63.5l-27.8-48.4l-11.6,9.4
		l-1.9-4.5l13.2-10.6l27.8,48.4l78.5-63.6l74.8,114.3l0.4,0.6l15.2-12.3l34.4,31.3l166.7-134.3l-0.8-1l-165.9,133.6l-34.4-31.3
		l-15,12.1l-75.1-114.9l-78.5,63.5l-27.8-48.4l-14,11.3l-1.9-4.5l15.6-12.5l27.8,48.4l78.5-63.6l74.8,114.3l0.4,0.6l15.2-12.3
		l34.4,31.3l166.7-134.3l-0.8-1l-165.9,133.6l-34.4-31.3l-15,12.1l-75.1-114.9l-78.5,63.5l-27.8-48.4l-16.4,13.2l-1.9-4.5l18-14.5
		l27.8,48.4l78.5-63.6l74.8,114.3l0.4,0.6l15.2-12.3l34.4,31.3l166.7-134.3l-0.8-1l-165.9,133.6l-34.4-31.3l-15,12.1l-75.1-114.9
		l-78.5,63.5l-27.8-48.4l-18.8,15.2l-1.9-4.5l20.4-16.4l27.8,48.4l78.5-63.6l74.8,114.3l0.4,0.6l15.2-12.3l34.4,31.3l166.7-134.3
		l-0.8-1l-165.9,133.6l-34.4-31.3l-15,12.1l-75.1-114.9l-78.5,63.5l-27.8-48.4l-21.3,17.1l-2.1-4.9l8.1-6.6l-1.9-2.4l-8.1,6.5
		l-2.8,2.2v0l-14.6-13.2l0,0l0-15.2l0-60.8L1089.1,979.3z M1150.4,1357.1l41.3-33.3l44.1,40.1l9.5-7.7l3.6-2.9l2.6,3.9l-6.2,5
		l-9.5,7.7l-44.1-40.1l-40.9,32.9l-49.8-117.7l1.4-1.1L1150.4,1357.1z M1150.1,1364l0.3,0.8l41.3-33.3l43.7,39.7l0.4,0.4l9.6-7.7
		l6.9-5.6l2.6,3.9l-9.4,7.6l-9.5,7.7l-44.1-40.1l-40.9,32.9l-52.2-123.4l1.4-1.1L1150.1,1364z M1150.1,1371.6l0.3,0.8l41.3-33.3
		l44.1,40.1l9.6-7.8l10.1-8.2l2.6,4l-12.7,10.3l-9.5,7.7l-44.1-40.1L1151,1378l-54.6-129l1.4-1.1L1150.1,1371.6z M1026.5,1297.9
		L1026.5,1297.9l-43.1,57.6l-38.2,29.7l-44.1-40.1l-40.9,32.9l-54.5-128.8l1.4-1.1l52.3,123.6l0.3,0.8l41.3-33.3l44.1,40.1
		l39.1-30.4l0.1-0.1l43-57.5l36.4-29.3l3.5,3.2L1026.5,1297.9z M1026.5,1290.3L1026.5,1290.3l-43.1,57.6l-38.2,29.7l-44.1-40.1
		l-40.9,32.9l-52.1-123.2l1.4-1.1l49.9,117.9l0.3,0.8l41.3-33.3l44.1,40.1l39.1-30.4l0.1-0.1l43-57.5l32-25.7l3.5,3.2L1026.5,1290.3
		z M1026.5,1282.7L1026.5,1282.7l-43.1,57.6l-38.2,29.7l-44.1-40.1l-40.9,32.9l-49.7-117.5l1.3-1.1l47.6,112.2l0.3,0.8l41.3-33.3
		l44.1,40.1l39.1-30.4l0.1-0.1l43-57.5l27.5-22.1l3.5,3.2L1026.5,1282.7z M1049.4,1248.9l-22.9,18.4l-0.1,0l-43,57.5l-38.2,29.7
		l-44.1-40.1l-40.9,32.9l-44.9-106.2l1.4-1.1l43,101.7l41.3-33.3l44.1,40.1l39.1-30.4l0.1-0.1l43-57.5l18.5-14.9L1049.4,1248.9z
		 M947,1334.4l-0.4-0.2l-8.2,6.6l-3.5-3.2l11.9-9.6l13.7,7.1l-4.8,3.7L947,1334.4z M954.6,1339.7l-9.4,7.3l-5.9-5.3l7.4-6
		L954.6,1339.7z M947,1326.7l-0.4-0.2l-12.6,10.2l-3.5-3.2l16.3-13.2l19.6,10.1l-4.8,3.7L947,1326.7z M947,1319.1l-0.4-0.2
		l-17.1,13.8l-3.5-3.2l20.7-16.8l25.5,13.2l-4.8,3.7L947,1319.1z M947,1311.5l-0.4-0.2l-21.5,17.4l-3.5-3.2l25.2-20.4l31.4,16.2
		l-4.8,3.7L947,1311.5z M947,1303.8l-0.4-0.2l-26,21l-3.5-3.2l29.6-24l37.1,19.2l-0.5,0.6l-4.2,3.2L947,1303.8z M947,1296.2
		l-0.4-0.2l-30.4,24.6l-3.5-3.2l34.1-27.6l41.2,21.3l-3.4,4.5L947,1296.2z M947,1288.6l-0.4-0.2l-34.9,28.2l-3.5-3.2l38.5-31.2
		l45.4,23.4l-3.4,4.5L947,1288.6z M947,1280.9l-0.4-0.2l-39.3,31.8l-3.5-3.2l43-34.8l49.5,25.6l-3.4,4.5L947,1280.9z M947,1273.3
		l-0.4-0.2l-43.7,35.4l-1.8-1.6l-34,27.3l-26.6-46.7l-1.8,1.5l-1.9-4.5l3.3-2.7l27.8,48.9l78.7-63.8l53.6,27.7l-3.4,4.5L947,1273.3z
		 M843.8,1300.8l-4.5-10.6l0.9-0.8l26,45.6l-2,1.6L843.8,1300.8z M863.2,1337.4l-2.9,2.4l-12.4-29.2L863.2,1337.4z M947,1265.6
		l-0.4-0.2l-78.2,63.3l-27.8-48.9l-4.2,3.4l-1.9-4.5l5.7-4.7l27.8,48.9l78.7-63.8l57.7,29.8l-3.4,4.5L947,1265.6z M947,1258
		l-0.4-0.2l-78.2,63.3l-27.8-48.9l-6.6,5.4l-1.9-4.5l8.1-6.6l27.8,48.9l78.7-63.8l61.8,32l-3.4,4.5L947,1258z M947,1250.4l-0.4-0.2
		l-78.2,63.3l-27.8-48.9l-9,7.3l-1.9-4.5l10.5-8.6l27.8,48.9l78.7-63.8l65.9,34.1l-3.4,4.5L947,1250.4z M947,1242.7l-0.4-0.2
		l-78.2,63.3l-27.8-48.9l-11.4,9.3l-1.9-4.5l13-10.6l27.8,48.9l78.7-63.8l70.1,36.2l-3.4,4.5L947,1242.7z M947,1235.1l-0.4-0.2
		l-78.2,63.3l-27.8-48.9l-13.8,11.3l-1.9-4.5l15.4-12.5l27.8,48.9l78.7-63.8l74.2,38.4l-3.4,4.5L947,1235.1z M1021.8,1266.1
		l-74.7-38.6l-0.4-0.2l-78.2,63.3l-27.8-48.9l-16.2,13.2l-1.9-4.5l17.8-14.5l27.8,48.9l78.7-63.8l78.3,40.5L1021.8,1266.1z
		 M840.2,1228.4l27.8,48.9l78.7-63.8l79.3,41l10.8-8.7l3.2,2.9l-13.6,11l-0.1,0l-0.6,0.8l-78.8-40.8l-0.4-0.2l-78.2,63.3l-27.8-48.9
		l-18.6,15.2l-1.8-4.3L840.2,1228.4z M814.4,1242.1l45.4,107.3l41.3-33.3l44.1,40.1l39.1-30.4l0.1-0.1l43-57.5l23-18.5l3.5,3.2
		l-27.4,22l-0.1,0l-43,57.5l-38.2,29.7l-44.1-40.1l-40.9,32.9l-47.4-111.8L814.4,1242.1z M1026.5,1305.6L1026.5,1305.6l-43.1,57.6
		l-38.2,29.7l-44.1-40.1l-40.9,32.9l-56.8-133.9l-0.2-0.6l1.4-1.2l54.7,129.3l0.3,0.8l41.3-33.3l44.1,40.1l39.1-30.4l0.1-0.1
		l43-57.5l40.9-32.9l3.4,3.1L1026.5,1305.6z M1245.5,1385.1l-9.5,7.8l-44.1-40.1l-40.9,32.9l-56.7-133.9l-0.3-0.8l-1.3,1l2.7-2.2
		l54.8,129.5l0.3,0.8l41.3-33.3l44.1,40.1l9.6-7.7l13.4-10.8l2.5,3.9L1245.5,1385.1z M1244.9,1347.4l-9,7.2l-44.1-40.1l-40.9,32.9
		l-45-106.3l1.4-1.1l43.1,101.8l41.3-33.3l43.7,39.7l0.4,0.4l6.5-5.2l0.1-0.1l2.6,4L1244.9,1347.4z M1151,1339.8l-13-30.6l16.1,28.1
		L1151,1339.8z M1237.6,1335.8l4.2,6.4l-5.9,4.8l-5.7-5.2L1237.6,1335.8z M1131.3,1289.9l25.8,44.9l-2,1.6l-21.2-36.9l-3.7-8.8
		L1131.3,1289.9z M1104.9,1242l45.5,107.5l41.3-33.3l43.7,39.7l0.4,0.4l9.5-7.6l0.4-0.3l2.6,3.9l-2.9,2.4l-9.5,7.7l-44.1-40.1
		l-40.9,32.9l-47.4-112L1104.9,1242z"/>
	<path d="M1414.9,1207.7L1414.9,1207.7l35.4,61.3l78.5-63.6v-55.8v-30.2l7.5-6.1l3-2.4l-1.9-2.4l-1.1,0.9l-8.6,7l-44.1-40.1
		l-69.6,56.3l1.9,2.4l35.4-28.7l33.6,30.5v12.7v1.4L1414.9,1207.7z M1484.9,1237.1l-1.5,1.2l-32.3-56l33.9-27.4V1237.1z"/>
	<path d="M1325.5,1023.5v0.8c7.4,2.3,10.7,10.1,10.7,19v106.3v147.9l-21,17l1.9,2.4l10.9-8.7l34.4,31.3l45-36.5l-1.9-2.4l-10.9,8.8
		v0l-14.6-13.2l0,0l0-146.5l0-170.3L1325.5,1023.5z"/>
	<polygon points="1208.8,2033.3 1174.3,2002.1 1129.2,2038.5 1131.2,2040.8 1142,2032.1 1142,2032.1 1176.5,2063.4 1221.5,2026.9 
		1219.6,2024.6 	"/>
</g>
</svg>
